<svg xmlns="http://www.w3.org/2000/svg" viewBox="0 0 400 100" width="400" height="100">
  <defs>
    <linearGradient id="greenGrad" x1="0" y1="0" x2="0" y2="1">
      <stop offset="0%" stop-color="#4a9e2e"/>
      <stop offset="100%" stop-color="#2d6e15"/>
    </linearGradient>
    <linearGradient id="sproutGrad" x1="0" y1="0" x2="0" y2="1">
      <stop offset="0%" stop-color="#9be851"/>
      <stop offset="100%" stop-color="#5cb33d"/>
    </linearGradient>
  </defs>

  <!-- Green circle icon with white border -->
  <circle cx="35" cy="50" r="28" fill="url(#greenGrad)" stroke="#ffffff" stroke-width="2"/>

  <!-- White sprout inside circle -->
  <!-- Stem -->
  <path d="M35 62 L35 42" stroke="#ffffff" stroke-width="2.5" stroke-linecap="round" fill="none"/>
  <!-- Left leaf -->
  <path d="M34 53 C27 49 22 43 20 37 C20 37 30 40 34 47 C35 49 35 51 34 53 Z" fill="#ffffff"/>
  <!-- Right leaf -->
  <path d="M36 50 C43 46 48 40 50 34 C50 34 40 37 36 44 C35 46 35 48 36 50 Z" fill="#ffffff"/>
  <!-- Top leaf -->
  <path d="M35 42 C32 38 29 34 28 30 C28 30 33 32 35 37 C36 39 36 41 35 42 Z" fill="#ffffff"/>

  <!-- "FarmMart" text -->
  <text x="78" y="48" font-family="Arial, sans-serif" font-size="26" font-weight="bold" fill="#ffffff">FarmMart</text>

  <!-- "AI Agriculture Marketplace" tagline -->
  <text x="78" y="68" font-family="Arial, sans-serif" font-size="12" fill="#ffffff" opacity="0.85">AI Agriculture Marketplace</text>
</svg>
