<svg xmlns="http://www.w3.org/2000/svg" viewBox="0 0 100 100" width="100" height="100">
  <defs>
    <linearGradient id="greenGrad" x1="0" y1="0" x2="0" y2="1">
      <stop offset="0%" stop-color="#4a9e2e"/>
      <stop offset="100%" stop-color="#2d6e15"/>
    </linearGradient>
  </defs>

  <!-- Green circle with white border -->
  <circle cx="50" cy="50" r="44" fill="url(#greenGrad)" stroke="#ffffff" stroke-width="3"/>

  <!-- White sprout -->
  <!-- Stem -->
  <path d="M50 72 L50 38" stroke="#ffffff" stroke-width="4" stroke-linecap="round" fill="none"/>
  <!-- Left leaf -->
  <path d="M48 58 C37 52 28 42 25 33 C25 33 40 38 47 49 C49 52 49 55 48 58 Z" fill="#ffffff"/>
  <!-- Right leaf -->
  <path d="M52 54 C63 48 72 38 75 29 C75 29 60 34 53 45 C51 48 51 51 52 54 Z" fill="#ffffff"/>
  <!-- Top leaf -->
  <path d="M50 38 C46 33 42 27 40 22 C40 22 46 25 50 31 C52 34 52 36 50 38 Z" fill="#ffffff"/>
</svg>
